<svg width="25" height="24" viewBox="0 0 25 24" fill="none" xmlns="http://www.w3.org/2000/svg">
<path d="M20.51 18.51L15.56 13.56L20.51 18.51ZM15.56 13.56L12.02 17.1C11.24 17.88 9.97 17.88 9.19 17.1L4.95 12.86C4.17 12.08 4.17 10.81 4.95 10.03L12.02 2.96C12.8 2.18 14.07 2.18 14.85 2.96L19.09 7.2C19.87 7.98 19.87 9.25 19.09 10.03L15.56 13.56ZM2.5 21H8.5H2.5ZM7.06 7.92L14.13 14.99L7.06 7.92Z" fill="#FFDDCE"/>
<path d="M20.51 18.51L15.56 13.56M2.5 21H8.5M7.06 7.92L14.13 14.99M15.56 13.56L12.02 17.1C11.24 17.88 9.97 17.88 9.19 17.1L4.95 12.86C4.17 12.08 4.17 10.81 4.95 10.03L12.02 2.96C12.8 2.18 14.07 2.18 14.85 2.96L19.09 7.2C19.87 7.98 19.87 9.25 19.09 10.03L15.56 13.56Z" stroke="black" stroke-width="1.5" stroke-miterlimit="10" stroke-linecap="round" stroke-linejoin="round"/>
<path d="M8.03027 7.98145L12.7062 3.29528C13.0963 2.90433 13.7295 2.90364 14.1204 3.29373L18.7636 7.92676C19.1545 8.31686 19.1552 8.95002 18.7651 9.34098L14.0892 14.0271L8.03027 7.98145Z" fill="#FFDDCE"/>
</svg>
