<svg width="20" height="18" viewBox="0 0 20 18" fill="none" xmlns="http://www.w3.org/2000/svg">
<path d="M14.822 16.9032H5.97581C2.43735 16.9032 1.55273 16.046 1.55273 12.6175V5.76032C1.55273 2.33175 2.43735 1.47461 5.97581 1.47461H14.822C18.3604 1.47461 19.245 2.33175 19.245 5.76032V12.6175C19.245 16.046 18.3604 16.9032 14.822 16.9032ZM12.1681 5.76032H16.5912H12.1681ZM13.0527 9.1889H16.5912H13.0527ZM14.822 12.6175H16.5912H14.822Z" fill="#86D0F7"/>
<path d="M12.1681 5.76032H16.5912M13.0527 9.1889H16.5912M14.822 12.6175H16.5912M14.822 16.9032H5.97581C2.43735 16.9032 1.55273 16.046 1.55273 12.6175V5.76032C1.55273 2.33175 2.43735 1.47461 5.97581 1.47461H14.822C18.3604 1.47461 19.245 2.33175 19.245 5.76032V12.6175C19.245 16.046 18.3604 16.9032 14.822 16.9032Z" stroke="#21527D" stroke-width="1.2" stroke-linecap="round" stroke-linejoin="round"/>
<path d="M7.30318 8.57942C7.72784 8.57942 8.1351 8.41597 8.43537 8.12502C8.73565 7.83407 8.90434 7.43945 8.90434 7.02799C8.90434 6.61653 8.73565 6.22191 8.43537 5.93097C8.1351 5.64002 7.72784 5.47656 7.30318 5.47656C6.87853 5.47656 6.47127 5.64002 6.171 5.93097C5.87072 6.22191 5.70203 6.61653 5.70203 7.02799C5.70203 7.43945 5.87072 7.83407 6.171 8.12502C6.47127 8.41597 6.87853 8.57942 7.30318 8.57942ZM10.3993 12.8994C10.3398 12.2977 10.0648 11.7352 9.62213 11.3094C9.17942 10.8836 8.59687 10.6213 7.97549 10.568C7.52838 10.5251 7.07799 10.5251 6.63088 10.568C6.01011 10.6229 5.42849 10.8857 4.98611 11.3112C4.54372 11.7367 4.26823 12.2983 4.20703 12.8994" fill="#86D0F7"/>
<path d="M10.3993 12.8994C10.3398 12.2977 10.0648 11.7352 9.62213 11.3094C9.17942 10.8836 8.59687 10.6213 7.97549 10.568C7.52838 10.5251 7.07799 10.5251 6.63088 10.568C6.01011 10.6229 5.42849 10.8857 4.98611 11.3112C4.54372 11.7367 4.26823 12.2983 4.20703 12.8994M7.30319 8.57942C7.72784 8.57942 8.1351 8.41597 8.43537 8.12502C8.73565 7.83407 8.90434 7.43945 8.90434 7.02799C8.90434 6.61653 8.73565 6.22191 8.43537 5.93097C8.1351 5.64002 7.72784 5.47656 7.30319 5.47656C6.87853 5.47656 6.47127 5.64002 6.171 5.93097C5.87072 6.22191 5.70203 6.61653 5.70203 7.02799C5.70203 7.43945 5.87072 7.83407 6.171 8.12502C6.47127 8.41597 6.87853 8.57942 7.30319 8.57942V8.57942Z" stroke="#21527D" stroke-width="1.2" stroke-linecap="round" stroke-linejoin="round"/>
</svg>
