<svg width="21" height="21" viewBox="0 0 21 21" fill="none" xmlns="http://www.w3.org/2000/svg">
<path d="M11.1978 2.29121L18.6978 5.29119C18.9895 5.40786 19.2228 5.75785 19.2228 6.06618V8.83286C19.2228 9.29119 18.8478 9.66619 18.3895 9.66619H3.38949C2.93115 9.66619 2.55615 9.29119 2.55615 8.83286V6.06618C2.55615 5.75785 2.78949 5.40786 3.08116 5.29119L10.5812 2.29121C10.7478 2.22454 11.0311 2.22454 11.1978 2.29121Z" fill="#FFF9C6" stroke="#292D32" stroke-width="1.5" stroke-miterlimit="10" stroke-linecap="round" stroke-linejoin="round"/>
<path d="M19.2228 18.8333H2.55615V16.3333C2.55615 15.875 2.93115 15.5 3.38949 15.5H18.3895C18.8478 15.5 19.2228 15.875 19.2228 16.3333V18.8333Z" fill="#FFF9C6" stroke="#292D32" stroke-width="1.5" stroke-miterlimit="10" stroke-linecap="round" stroke-linejoin="round"/>
<path d="M4.22314 15.5003V9.66699" stroke="#292D32" stroke-width="1.5" stroke-miterlimit="10" stroke-linecap="round" stroke-linejoin="round"/>
<path d="M7.55615 15.5003V9.66699" stroke="#292D32" stroke-width="1.5" stroke-miterlimit="10" stroke-linecap="round" stroke-linejoin="round"/>
<path d="M10.8896 15.5003V9.66699" stroke="#292D32" stroke-width="1.5" stroke-miterlimit="10" stroke-linecap="round" stroke-linejoin="round"/>
<path d="M14.2231 15.5003V9.66699" stroke="#292D32" stroke-width="1.5" stroke-miterlimit="10" stroke-linecap="round" stroke-linejoin="round"/>
<path d="M17.5562 15.5003V9.66699" stroke="#292D32" stroke-width="1.5" stroke-miterlimit="10" stroke-linecap="round" stroke-linejoin="round"/>
<path d="M1.72314 18.833H20.0565" stroke="#292D32" stroke-width="1.5" stroke-miterlimit="10" stroke-linecap="round" stroke-linejoin="round"/>
</svg>
